<mxfile host="app.diagrams.net" modified="2022-05-03T20:29:12.983Z" agent="5.0 (Windows NT 10.0; Win64; x64) AppleWebKit/537.36 (KHTML, like Gecko) Chrome/100.0.4896.127 Safari/537.36" etag="MFgZbtylzXtda6EDm2Av" version="17.5.0" type="github">
  <diagram id="uMlx5eYv40aDIDSrAwLx" name="Page-1">
    <mxGraphModel dx="1422" dy="762" grid="1" gridSize="10" guides="1" tooltips="1" connect="1" arrows="1" fold="1" page="1" pageScale="1" pageWidth="827" pageHeight="1169" math="0" shadow="0">
      <root>
        <mxCell id="0" />
        <mxCell id="1" parent="0" />
        <mxCell id="DT43YQRX6ZBJx7ImOa__-8" value="bar" style="shape=umlFrame;whiteSpace=wrap;html=1;" vertex="1" parent="1">
          <mxGeometry x="340" y="30" width="280" height="450" as="geometry" />
        </mxCell>
        <mxCell id="DT43YQRX6ZBJx7ImOa__-7" value="foo" style="shape=umlFrame;whiteSpace=wrap;html=1;" vertex="1" parent="1">
          <mxGeometry x="70" y="30" width="270" height="450" as="geometry" />
        </mxCell>
        <mxCell id="DT43YQRX6ZBJx7ImOa__-21" style="edgeStyle=orthogonalEdgeStyle;rounded=0;orthogonalLoop=1;jettySize=auto;html=1;" edge="1" parent="1" source="DT43YQRX6ZBJx7ImOa__-1" target="DT43YQRX6ZBJx7ImOa__-16">
          <mxGeometry relative="1" as="geometry" />
        </mxCell>
        <mxCell id="DT43YQRX6ZBJx7ImOa__-1" value="1" style="ellipse;whiteSpace=wrap;html=1;" vertex="1" parent="1">
          <mxGeometry x="130" y="60" width="60" height="50" as="geometry" />
        </mxCell>
        <mxCell id="DT43YQRX6ZBJx7ImOa__-9" value="7" style="ellipse;whiteSpace=wrap;html=1;" vertex="1" parent="1">
          <mxGeometry x="450" y="60" width="60" height="50" as="geometry" />
        </mxCell>
        <mxCell id="DT43YQRX6ZBJx7ImOa__-10" value="8" style="ellipse;whiteSpace=wrap;html=1;" vertex="1" parent="1">
          <mxGeometry x="380" y="140" width="60" height="50" as="geometry" />
        </mxCell>
        <mxCell id="DT43YQRX6ZBJx7ImOa__-11" value="9" style="ellipse;whiteSpace=wrap;html=1;" vertex="1" parent="1">
          <mxGeometry x="517" y="140" width="60" height="50" as="geometry" />
        </mxCell>
        <mxCell id="DT43YQRX6ZBJx7ImOa__-12" value="10" style="ellipse;whiteSpace=wrap;html=1;" vertex="1" parent="1">
          <mxGeometry x="450" y="230" width="60" height="50" as="geometry" />
        </mxCell>
        <mxCell id="DT43YQRX6ZBJx7ImOa__-13" value="11" style="ellipse;whiteSpace=wrap;html=1;" vertex="1" parent="1">
          <mxGeometry x="380" y="320" width="60" height="50" as="geometry" />
        </mxCell>
        <mxCell id="DT43YQRX6ZBJx7ImOa__-14" value="12" style="ellipse;whiteSpace=wrap;html=1;" vertex="1" parent="1">
          <mxGeometry x="530" y="320" width="60" height="50" as="geometry" />
        </mxCell>
        <mxCell id="DT43YQRX6ZBJx7ImOa__-15" value="13" style="ellipse;whiteSpace=wrap;html=1;" vertex="1" parent="1">
          <mxGeometry x="455" y="410" width="60" height="50" as="geometry" />
        </mxCell>
        <mxCell id="DT43YQRX6ZBJx7ImOa__-22" style="edgeStyle=orthogonalEdgeStyle;rounded=0;orthogonalLoop=1;jettySize=auto;html=1;" edge="1" parent="1" source="DT43YQRX6ZBJx7ImOa__-16" target="DT43YQRX6ZBJx7ImOa__-18">
          <mxGeometry relative="1" as="geometry" />
        </mxCell>
        <mxCell id="DT43YQRX6ZBJx7ImOa__-16" value="2" style="ellipse;whiteSpace=wrap;html=1;" vertex="1" parent="1">
          <mxGeometry x="130" y="160" width="60" height="50" as="geometry" />
        </mxCell>
        <mxCell id="DT43YQRX6ZBJx7ImOa__-26" style="edgeStyle=orthogonalEdgeStyle;rounded=0;orthogonalLoop=1;jettySize=auto;html=1;" edge="1" parent="1" source="DT43YQRX6ZBJx7ImOa__-17" target="DT43YQRX6ZBJx7ImOa__-16">
          <mxGeometry relative="1" as="geometry" />
        </mxCell>
        <mxCell id="DT43YQRX6ZBJx7ImOa__-17" value="5" style="ellipse;whiteSpace=wrap;html=1;" vertex="1" parent="1">
          <mxGeometry x="255" y="160" width="60" height="50" as="geometry" />
        </mxCell>
        <mxCell id="DT43YQRX6ZBJx7ImOa__-24" style="edgeStyle=orthogonalEdgeStyle;rounded=0;orthogonalLoop=1;jettySize=auto;html=1;" edge="1" parent="1" source="DT43YQRX6ZBJx7ImOa__-18" target="DT43YQRX6ZBJx7ImOa__-19">
          <mxGeometry relative="1" as="geometry" />
        </mxCell>
        <mxCell id="DT43YQRX6ZBJx7ImOa__-27" style="edgeStyle=orthogonalEdgeStyle;rounded=0;orthogonalLoop=1;jettySize=auto;html=1;" edge="1" parent="1" source="DT43YQRX6ZBJx7ImOa__-18" target="DT43YQRX6ZBJx7ImOa__-20">
          <mxGeometry relative="1" as="geometry" />
        </mxCell>
        <mxCell id="DT43YQRX6ZBJx7ImOa__-18" value="3" style="ellipse;whiteSpace=wrap;html=1;" vertex="1" parent="1">
          <mxGeometry x="130" y="270" width="60" height="50" as="geometry" />
        </mxCell>
        <mxCell id="DT43YQRX6ZBJx7ImOa__-25" style="edgeStyle=orthogonalEdgeStyle;rounded=0;orthogonalLoop=1;jettySize=auto;html=1;" edge="1" parent="1" source="DT43YQRX6ZBJx7ImOa__-19" target="DT43YQRX6ZBJx7ImOa__-17">
          <mxGeometry relative="1" as="geometry" />
        </mxCell>
        <mxCell id="DT43YQRX6ZBJx7ImOa__-19" value="4" style="ellipse;whiteSpace=wrap;html=1;" vertex="1" parent="1">
          <mxGeometry x="255" y="270" width="60" height="50" as="geometry" />
        </mxCell>
        <mxCell id="DT43YQRX6ZBJx7ImOa__-20" value="6" style="ellipse;whiteSpace=wrap;html=1;" vertex="1" parent="1">
          <mxGeometry x="130" y="390" width="60" height="50" as="geometry" />
        </mxCell>
        <mxCell id="DT43YQRX6ZBJx7ImOa__-33" value="" style="endArrow=classic;html=1;rounded=0;" edge="1" parent="1" source="DT43YQRX6ZBJx7ImOa__-9" target="DT43YQRX6ZBJx7ImOa__-11">
          <mxGeometry width="50" height="50" relative="1" as="geometry">
            <mxPoint x="150" y="400" as="sourcePoint" />
            <mxPoint x="200" y="350" as="targetPoint" />
          </mxGeometry>
        </mxCell>
        <mxCell id="DT43YQRX6ZBJx7ImOa__-34" value="" style="endArrow=classic;html=1;rounded=0;" edge="1" parent="1" source="DT43YQRX6ZBJx7ImOa__-11" target="DT43YQRX6ZBJx7ImOa__-12">
          <mxGeometry width="50" height="50" relative="1" as="geometry">
            <mxPoint x="160" y="410" as="sourcePoint" />
            <mxPoint x="210" y="360" as="targetPoint" />
          </mxGeometry>
        </mxCell>
        <mxCell id="DT43YQRX6ZBJx7ImOa__-35" value="" style="endArrow=classic;html=1;rounded=0;" edge="1" parent="1" source="DT43YQRX6ZBJx7ImOa__-9" target="DT43YQRX6ZBJx7ImOa__-10">
          <mxGeometry width="50" height="50" relative="1" as="geometry">
            <mxPoint x="170" y="420" as="sourcePoint" />
            <mxPoint x="220" y="370" as="targetPoint" />
          </mxGeometry>
        </mxCell>
        <mxCell id="DT43YQRX6ZBJx7ImOa__-36" value="" style="endArrow=classic;html=1;rounded=0;" edge="1" parent="1" source="DT43YQRX6ZBJx7ImOa__-12" target="DT43YQRX6ZBJx7ImOa__-14">
          <mxGeometry width="50" height="50" relative="1" as="geometry">
            <mxPoint x="180" y="430" as="sourcePoint" />
            <mxPoint x="230" y="380" as="targetPoint" />
          </mxGeometry>
        </mxCell>
        <mxCell id="DT43YQRX6ZBJx7ImOa__-37" value="" style="endArrow=classic;html=1;rounded=0;" edge="1" parent="1" source="DT43YQRX6ZBJx7ImOa__-10" target="DT43YQRX6ZBJx7ImOa__-12">
          <mxGeometry width="50" height="50" relative="1" as="geometry">
            <mxPoint x="190" y="440" as="sourcePoint" />
            <mxPoint x="240" y="390" as="targetPoint" />
          </mxGeometry>
        </mxCell>
        <mxCell id="DT43YQRX6ZBJx7ImOa__-38" value="" style="endArrow=classic;html=1;rounded=0;" edge="1" parent="1" source="DT43YQRX6ZBJx7ImOa__-14" target="DT43YQRX6ZBJx7ImOa__-15">
          <mxGeometry width="50" height="50" relative="1" as="geometry">
            <mxPoint x="200" y="450" as="sourcePoint" />
            <mxPoint x="250" y="400" as="targetPoint" />
          </mxGeometry>
        </mxCell>
        <mxCell id="DT43YQRX6ZBJx7ImOa__-39" value="" style="endArrow=classic;html=1;rounded=0;" edge="1" parent="1" source="DT43YQRX6ZBJx7ImOa__-12" target="DT43YQRX6ZBJx7ImOa__-13">
          <mxGeometry width="50" height="50" relative="1" as="geometry">
            <mxPoint x="210" y="460" as="sourcePoint" />
            <mxPoint x="260" y="410" as="targetPoint" />
          </mxGeometry>
        </mxCell>
        <mxCell id="DT43YQRX6ZBJx7ImOa__-40" value="" style="endArrow=classic;html=1;rounded=0;" edge="1" parent="1" source="DT43YQRX6ZBJx7ImOa__-13" target="DT43YQRX6ZBJx7ImOa__-15">
          <mxGeometry width="50" height="50" relative="1" as="geometry">
            <mxPoint x="220" y="470" as="sourcePoint" />
            <mxPoint x="270" y="420" as="targetPoint" />
          </mxGeometry>
        </mxCell>
      </root>
    </mxGraphModel>
  </diagram>
</mxfile>
